<?xml version="1.0" encoding="iso-8859-1"?>
<!-- Generator: Adobe Illustrator 19.1.0, SVG Export Plug-In . SVG Version: 6.00 Build 0)  -->
<svg version="1.1" id="Capa_1" xmlns="http://www.w3.org/2000/svg" xmlns:xlink="http://www.w3.org/1999/xlink" x="0px" y="0px"
	 viewBox="0 0 487.194 487.194" style="enable-background:new 0 0 487.194 487.194;" xml:space="preserve">
<g>
	<g>
		<path d="M264.911,0c-28.5,0-55.4,6.4-79.5,17.8c-63.6,29.5-107.6,93.8-107.6,168.5l0,0v24.9v6l-37.9,72.4
			c-9.6,18.3-0.5,33.2,20.1,33.2h17.8v0.4v31.5v36.9c0,21.5,17.6,39.1,39.1,39.1l53.7-8l0.1,53.7v0.4l0,0
			c0.3,6.9,6.1,11.4,13.3,10.2l193.5-34.2c7.3-1.3,13.3-8.4,13.3-15.8v-8.5v-6.9v-98.4c37.1-34,60.3-82.9,60.3-137.1
			C451.011,83.3,367.711,0,264.911,0z M359.911,282.6c-44.7,44.7-112.9,51.8-165,21.1l-0.3-0.2c-20.5,15.5-42.5,18.2-57.8,15.8
			c-5.1-0.8-6.2-7.7-1.5-10c14-6.9,22.9-20.6,28-31.7l-1.4-1.1c-47.3-53.4-45.4-135.1,5.7-186.2c53.1-53.1,139.2-53.1,192.3,0
			S413.011,229.5,359.911,282.6z"/>
		<path d="M363.111,170.3h-14.1c-2.3-11.9-6.9-23-13.5-32.7l9.9-9.9c3.6-3.6,3.6-9.4,0-13l-10-10c-3.6-3.6-9.4-3.6-13,0l-9.9,9.9
			c-9.7-6.6-20.8-11.4-32.8-13.7V87c0-5.1-4.1-9.2-9.2-9.2h-14.2c-5.1,0-9.2,4.1-9.2,9.2v13.7c-12.1,2.2-23.2,6.9-33,13.6l-9.6-9.6
			c-3.6-3.6-9.4-3.6-13,0l-10,10c-3.6,3.6-3.6,9.4,0,13l9.6,9.6c-6.7,9.8-11.5,21-13.7,33.1h-13.5c-5.1,0-9.2,4.1-9.2,9.2v14.2
			c0,5.1,4.1,9.2,9.2,9.2h13.5c2.3,12.1,7,23.3,13.7,33.1l-9.6,9.6c-3.6,3.6-3.6,9.4,0,13l10,10c3.6,3.6,9.4,3.6,13,0l9.6-9.6
			c9.8,6.6,21,11.3,33,13.6v13.7c0,5.1,4.1,9.2,9.2,9.2h14.2c5.1,0,9.2-4.1,9.2-9.2v-13.8c12-2.3,23.1-7,32.8-13.7l9.9,9.9
			c3.6,3.6,9.4,3.6,13,0l10-10c3.6-3.6,3.6-9.4,0-13l-9.9-9.9c6.6-9.7,11.3-20.8,13.5-32.7h14.1c5.1,0,9.2-4.1,9.2-9.2v-14.2
			C372.311,174.4,368.211,170.3,363.111,170.3z M263.511,127.9c6.4,0,12.6,1,18.3,2.9l-9,15.6c-3.3-0.9-6.8-1.3-10.4-1.3
			c-19,0-35.1,12.9-39.9,30.5h-16.8C211.011,148.4,234.811,127.9,263.511,127.9z M282.211,186.4c0,10.9-8.9,19.8-19.8,19.8
			s-19.8-8.9-19.8-19.8c0-10.9,8.9-19.8,19.8-19.8C273.411,166.6,282.211,175.5,282.211,186.4z M263.511,245.3
			c-28.8,0-52.7-20.7-57.8-48h16.8c4.8,17.5,20.8,30.5,39.9,30.5c3.7,0,7.2-0.5,10.6-1.4l9.2,15.9
			C276.411,244.3,270.111,245.3,263.511,245.3z M301.211,231.6l-9.4-16.2c7.4-7.5,11.9-17.7,11.9-29c0-11.4-4.6-21.7-12.1-29.2
			l9.2-16c13.1,10.8,21.4,27.1,21.4,45.3S314.111,220.8,301.211,231.6z"/>
	</g>
</g>
<g>
</g>
<g>
</g>
<g>
</g>
<g>
</g>
<g>
</g>
<g>
</g>
<g>
</g>
<g>
</g>
<g>
</g>
<g>
</g>
<g>
</g>
<g>
</g>
<g>
</g>
<g>
</g>
<g>
</g>
</svg>
