<?xml version="1.0" encoding="iso-8859-1"?>
<!-- Generator: Adobe Illustrator 18.0.0, SVG Export Plug-In . SVG Version: 6.00 Build 0)  -->
<!DOCTYPE svg PUBLIC "-//W3C//DTD SVG 1.1//EN" "http://www.w3.org/Graphics/SVG/1.1/DTD/svg11.dtd">
<svg version="1.1" id="Capa_1" xmlns="http://www.w3.org/2000/svg" xmlns:xlink="http://www.w3.org/1999/xlink" x="0px" y="0px"
	 viewBox="0 0 330 330" style="enable-background:new 0 0 330 330;" xml:space="preserve">
<g>
	<path d="M113.573,114.286c3.445,0,6.043-2.385,6.043-5.548V93.357h5.784c3.127,0,5.485-2.438,5.485-5.672
		c0-3.285-2.41-5.857-5.485-5.857h-5.784V72.8h15.691c3.163,0,5.548-2.571,5.548-5.981c0-3.25-2.437-5.796-5.548-5.796h-21.92
		c-3.339,0-5.857,2.385-5.857,5.548v42.168C107.53,111.901,110.128,114.286,113.573,114.286z"/>
	<path d="M162.926,114.657c10.569,0,16.879-6.449,16.879-17.25V78.212c0-10.764-6.31-17.189-16.879-17.189
		c-10.57,0-16.88,6.426-16.88,17.189v19.195C146.046,108.209,152.356,114.657,162.926,114.657z M167.719,97.407
		c0,4.578-1.757,5.474-4.793,5.474c-3.036,0-4.793-0.896-4.793-5.474V78.212c0-4.526,1.757-5.412,4.793-5.412
		c3.036,0,4.793,0.886,4.793,5.412V97.407z"/>
	<path d="M196.241,114.286c3.389,0,6.043-2.464,6.043-5.61V93.667h1.421l8.4,16.365c0.541,1.082,2.189,4.378,5.745,4.378
		c3.385,0,6.354-2.853,6.354-6.105c0-1.01-0.279-1.999-0.793-2.831l-7.271-13.978c5.107-2.571,7.941-7.559,7.941-14.275
		c0-10.294-6.333-16.198-17.375-16.198h-10.96c-0.088,0-0.176,0.003-0.264,0.009c-3.012,0.2-5.284,2.554-5.284,5.477v42.167
		C190.197,111.874,192.795,114.286,196.241,114.286z M206.705,82.138h-4.421V72.8h4.421c4.423,0,5.288,1.689,5.288,4.607
		C211.993,80.403,211.128,82.138,206.705,82.138z"/>
	<path d="M90.909,188.904c3.389,0,6.043-2.464,6.043-5.609v-15.01h1.421l8.4,16.365c0.541,1.083,2.189,4.379,5.745,4.379
		c3.385,0,6.354-2.853,6.354-6.105c0-1.011-0.279-2-0.794-2.832l-7.271-13.977c5.106-2.57,7.94-7.559,7.94-14.275
		c0-10.295-6.333-16.199-17.375-16.199h-10.96c-0.088,0-0.176,0.003-0.264,0.009c-3.012,0.2-5.284,2.554-5.284,5.478v42.168
		C84.865,186.493,87.463,188.904,90.909,188.904z M101.373,156.756h-4.421v-9.338h4.421c4.423,0,5.288,1.689,5.288,4.607
		C106.661,155.021,105.796,156.756,101.373,156.756z"/>
	<path d="M154.998,147.418c3.164,0,5.549-2.571,5.549-5.98c0-3.305-2.385-5.797-5.549-5.797h-22.043
		c-3.339,0-5.857,2.385-5.857,5.549v42.105c0,3.145,2.573,5.609,5.857,5.609h22.043c3.164,0,5.549-2.518,5.549-5.857
		c0-3.32-2.438-5.92-5.549-5.92h-15.814v-9.15h5.722c3.163,0,5.548-2.438,5.548-5.672c0-3.285-2.437-5.857-5.548-5.857h-5.722
		v-9.029H154.998z"/>
	<path d="M174.072,135.641c-3.501,0-6.043,2.334-6.043,5.549v42.105c0,3.198,2.598,5.609,6.043,5.609
		c3.389,0,6.043-2.464,6.043-5.609v-17.706l9.636,18.753c1.985,3.97,4.8,4.563,6.302,4.563c3.389,0,6.044-2.464,6.044-5.609v-42.168
		c0-3.128-2.598-5.486-6.044-5.486c-3.501,0-6.043,2.307-6.043,5.486v17.585l-9.169-18.066
		C180.198,139.408,178.241,135.641,174.072,135.641z"/>
	<path d="M209.208,141.561c0,3.32,2.438,5.92,5.549,5.92h6.402v35.814c0,3.198,2.598,5.609,6.043,5.609
		c3.389,0,6.044-2.464,6.044-5.609V147.48h6.34c3.164,0,5.549-2.572,5.549-5.982c0-3.339-2.385-5.857-5.549-5.857h-24.829
		C211.645,135.641,209.208,138.241,209.208,141.561z"/>
	<path d="M315,0H15C6.716,0,0,6.716,0,15v220c0,8.284,6.716,15,15,15h135v65c0,8.284,6.716,15,15,15c8.284,0,15-6.716,15-15v-65h135
		c8.284,0,15-6.716,15-15V15C330,6.716,323.284,0,315,0z M300,220H30V30h270V220z"/>
</g>
<g>
</g>
<g>
</g>
<g>
</g>
<g>
</g>
<g>
</g>
<g>
</g>
<g>
</g>
<g>
</g>
<g>
</g>
<g>
</g>
<g>
</g>
<g>
</g>
<g>
</g>
<g>
</g>
<g>
</g>
</svg>
